M48
INCH
T01C0.0150
T02C0.0400
T03C0.0300
%
T01
X+017200Y+002200
X+013400Y+009200
X+020800Y+010200
X+015600Y+010200
X+020400Y+008800
X+015000Y+011000
X+010200Y+010200
X+008777Y+010055
X+009800Y+009600
X+008228Y+009606
X+010600Y+009600
X+016000Y+005800
X+017677Y+004960
X+011338Y+005826
X+015600Y+005400
X+017637Y+004291
X+018343Y+002975
X+009200Y+005433
X+006181Y+007522
X+021200Y+011600
X+018464Y+008464
X+007795Y+005866
T02
X+014291Y+010905
X+013291Y+010905
X+012291Y+010905
X+011291Y+010905
X+010291Y+010905
X+009291Y+010905
X+021500Y+003710
X+021500Y+004710
X+006770Y+000860
X+007770Y+000860
X+008770Y+000860
X+009770Y+000860
X+010770Y+000860
X+011770Y+000860
X+012770Y+000860
X+013770Y+000860
X+014770Y+000860
X+015770Y+000860
X+016770Y+000860
X+017770Y+000860
X+018770Y+000860
X+019770Y+000860
X+005787Y+002267
X+005787Y+003267
X+005787Y+004267
X+015795Y+010944
X+016795Y+010944
X+017795Y+010944
X+018795Y+010944
T03
X+007700Y+004559
X+008700Y+004559
X+009700Y+004559
X+010700Y+004559
X+011700Y+004559
X+012700Y+004559
X+013700Y+004559
X+014700Y+004559
X+015700Y+004559
X+015700Y+007559
X+014700Y+007559
X+013700Y+007559
X+012700Y+007559
X+011700Y+007559
X+010700Y+007559
X+009700Y+007559
X+008700Y+007559
X+007700Y+007559
X+004448Y+009874
X+004448Y+007874
X+007755Y+010708
X+005755Y+010708
M30
