M48
INCH
T01C0.0150
T02C0.0400
T03C0.0300
%
T01
X+006500Y+007500
X+010500Y+007000
X+004250Y+005500
X+010750Y+003250
X+016750Y+002250
X+015250Y+002250
X+013750Y+007000
X+020250Y+003000
X+017320Y+004250
X+020250Y+005250
X+020750Y+003250
X+012450Y+004720
X+015750Y+004500
X+012750Y+004000
X+013140Y+007060
X+018750Y+003750
X+015260Y+004050
X+011250Y+003250
X+013750Y+003250
X+015205Y+006545
X+016390Y+006240
X+019070Y+004590
X+006250Y+006000
X+015750Y+005000
X+006510Y+004100
X+008250Y+008750
X+010000Y+004500
X+011000Y+001750
X+015750Y+002250
X+018510Y+003250
X+011500Y+004500
X+020500Y+006250
X+019940Y+007670
T02
X+014568Y+008124
X+013568Y+008124
X+012568Y+008124
X+011568Y+008124
X+010568Y+008124
X+009568Y+008124
X+021659Y+003727
X+021659Y+004727
X+007755Y+005133
X+007755Y+004133
X+007755Y+003133
X+006771Y+000905
X+007771Y+000905
X+008771Y+000905
X+009771Y+000905
X+010771Y+000905
X+011771Y+000905
X+012771Y+000905
X+013771Y+000905
X+014771Y+000905
X+015771Y+000905
X+016771Y+000905
X+017771Y+000905
X+018771Y+000905
X+019771Y+000905
X+006198Y+006785
X+007198Y+006785
X+008198Y+006785
X+018820Y+008202
X+017820Y+008202
X+016820Y+008202
X+015820Y+008202
T03
X+004510Y+002520
X+004510Y+004520
X+004540Y+008050
X+004540Y+006050
M30
